<svg width="19" height="18" viewBox="0 0 19 18" fill="none" xmlns="http://www.w3.org/2000/svg">
<path d="M16.918 2.67188H2.08203C1.20794 2.67188 0.5 3.38421 0.5 4.25391V13.7461C0.5 14.621 1.21314 15.3281 2.08203 15.3281H16.918C17.7847 15.3281 18.5 14.6239 18.5 13.7461V4.25391C18.5 3.38576 17.7949 2.67188 16.918 2.67188ZM16.6964 3.72656L10.6187 9.77228C10.3198 10.0711 9.92258 10.2356 9.5 10.2356C9.07742 10.2356 8.68016 10.0711 8.38034 9.77129L2.30359 3.72656H16.6964ZM1.55469 13.5314V4.46924L6.11227 9.00281L1.55469 13.5314ZM2.30425 14.2734L6.86005 9.74661L7.63556 10.518C8.13358 11.0161 8.79571 11.2903 9.5 11.2903C10.2043 11.2903 10.8664 11.0161 11.3635 10.519L12.14 9.74661L16.6957 14.2734H2.30425ZM17.4453 13.5314L12.8877 9.00281L17.4453 4.46924V13.5314Z" fill="#B1B1B1"/>
</svg>
