<svg width="13" height="12" viewBox="0 0 13 12" fill="none" xmlns="http://www.w3.org/2000/svg">
    <path d="M6.5 8.23256C6.19175 8.23256 5.94186 8.48245 5.94186 8.7907C5.94186 9.09895 6.19175 9.34884 6.5 9.34884C6.80825 9.34884 7.05814 9.09895 7.05814 8.7907C7.05814 8.48245 6.80825 8.23256 6.5 8.23256Z" fill="#FF7C6A"/>
    <path d="M6.0814 7.11628C6.0814 7.2273 6.1255 7.33377 6.204 7.41228C6.28251 7.49078 6.38898 7.53488 6.5 7.53488C6.61102 7.53488 6.71749 7.49078 6.796 7.41228C6.8745 7.33377 6.9186 7.2273 6.9186 7.11628H6.0814ZM6.9186 3.2093C6.9186 3.09828 6.8745 2.99181 6.796 2.9133C6.71749 2.8348 6.61102 2.7907 6.5 2.7907C6.38898 2.7907 6.28251 2.8348 6.204 2.9133C6.1255 2.99181 6.0814 3.09828 6.0814 3.2093H6.9186ZM11.6628 6C11.6628 7.36926 11.1189 8.68243 10.1506 9.65064C9.18243 10.6189 7.86926 11.1628 6.5 11.1628V12C9.81367 12 12.5 9.31367 12.5 6H11.6628ZM6.5 11.1628C5.13074 11.1628 3.81757 10.6189 2.84936 9.65064C1.88114 8.68243 1.33721 7.36926 1.33721 6H0.5C0.5 9.31367 3.18633 12 6.5 12V11.1628ZM1.33721 6C1.33721 4.63074 1.88114 3.31757 2.84936 2.34936C3.81757 1.38114 5.13074 0.837209 6.5 0.837209V0C3.18633 0 0.5 2.68633 0.5 6H1.33721ZM6.5 0.837209C7.86926 0.837209 9.18243 1.38114 10.1506 2.34936C11.1189 3.31757 11.6628 4.63074 11.6628 6H12.5C12.5 2.68633 9.81367 0 6.5 0V0.837209ZM6.9186 7.11628V3.2093H6.0814V7.11628H6.9186Z" fill="#FF7C6A"/>
</svg>
