<svg width="41" height="36" viewBox="0 0 41 36" fill="none" xmlns="http://www.w3.org/2000/svg">
    <path d="M14.0139 29.7685C19.965 28.3122 23.6029 22.2833 22.1393 16.3025C20.6757 10.3218 14.665 6.654 8.71386 8.11031C2.76276 9.56662 -0.875109 15.5955 0.588456 21.5763C2.05202 27.557 8.0628 31.2248 14.0139 29.7685Z" fill="#FE9738"/>
    <path d="M22.1396 16.3026C23.6031 22.2833 19.9649 28.3121 14.0139 29.7683C12.8714 30.0479 11.727 30.1388 10.6128 30.0604C11.3882 30.0365 12.1587 29.9313 12.9119 29.7466C18.8629 28.2903 22.501 22.261 21.0375 16.2804C19.8549 11.4478 15.7027 8.12535 11.013 7.79652C16.1419 7.64008 20.865 11.0944 22.1396 16.3026Z" fill="#FE860A"/>
    <path d="M12.7299 7.70087C13.1077 7.36203 13.4221 6.94772 13.664 6.50269C14.042 5.80742 14.2145 5.01497 14.1106 4.22816C14.1049 4.18554 14.0871 4.14546 14.0592 4.11278C14.0314 4.0801 13.9946 4.05624 13.9536 4.0441C13.2054 3.82352 12.4101 3.86858 11.676 4.12831C11.0792 4.33943 10.4881 4.67081 10.0629 5.15146C9.3857 5.91692 8.93021 6.9223 8.96336 7.96646C8.96832 8.12217 8.93866 8.53507 9.17028 8.59687C9.3841 8.65385 9.60275 8.69048 9.82333 8.70627C10.857 8.78037 11.9545 8.39634 12.7299 7.70087Z" fill="#00C27A"/>
    <path d="M14.1108 4.22805C14.2146 5.01503 14.0422 5.80711 13.664 6.50237C13.422 6.9479 13.1079 7.3622 12.73 7.70068C11.9545 8.39608 10.857 8.78054 9.82354 8.70622C9.60296 8.69029 9.3843 8.65365 9.17042 8.59678C9.12937 8.58584 9.09234 8.56317 9.06382 8.53153C9.03531 8.49988 9.01654 8.46062 9.00979 8.41852C8.99887 8.35077 8.98729 8.2803 8.98547 8.26368C8.98472 8.25591 8.98354 8.2488 8.98331 8.2409C9.98742 8.2855 11.0409 7.90385 11.7918 7.22985C12.1696 6.89142 12.4837 6.47707 12.7259 6.03211C13.0795 5.38201 13.2534 4.64639 13.1892 3.91052C13.4482 3.92586 13.7047 3.97058 13.9538 4.04381C13.9948 4.05614 14.0315 4.08008 14.0593 4.11276C14.0871 4.14544 14.105 4.18547 14.1108 4.22805Z" fill="#08B865"/>
    <path d="M8.02865 9.45355C7.65669 8.53389 6.83921 5.99894 6.62552 4.37514C6.52932 3.64401 7.11643 3.00621 7.84915 3.05176L7.88062 3.05367C8.46698 3.08864 8.93502 3.55866 8.9742 4.14732C9.04336 5.18615 9.3991 7.62133 9.70017 8.92123C9.8097 9.39419 9.52348 9.86727 9.05424 9.9821C8.62964 10.086 8.19337 9.86075 8.02865 9.45355Z" fill="#D77F4A"/>
    <path d="M8.97412 4.14722C9.04357 5.18632 9.39916 7.62109 9.70028 8.92103C9.80985 9.39415 9.52363 9.86696 9.05428 9.98182C8.86326 10.0289 8.66187 10.0099 8.4826 9.92801C8.56418 9.82362 8.62131 9.70208 8.64974 9.5724C8.67818 9.44271 8.67721 9.3082 8.64689 9.17881C8.34576 7.87887 7.99018 5.4441 7.92073 4.405C7.88608 3.88003 7.50997 3.44944 7.0135 3.338C7.23325 3.14333 7.527 3.03167 7.84904 3.05173C7.85942 3.05262 7.87024 3.05279 7.88062 3.05367C8.46685 3.08857 8.9352 3.5585 8.97412 4.14722Z" fill="#C86D36"/>
    <path d="M9.50816 11.9284C8.95351 12.0641 8.35459 12.018 7.83775 11.7571C7.74023 11.7077 7.66614 11.6214 7.63174 11.5173C7.59734 11.4132 7.60544 11.2998 7.65427 11.2018C7.70309 11.1039 7.78865 11.0296 7.89216 10.9951C7.99567 10.9606 8.10867 10.9688 8.20635 11.0179C8.89473 11.3653 9.84176 11.1194 10.2743 10.4807C10.336 10.3909 10.4306 10.3294 10.5375 10.3095C10.6444 10.2896 10.7549 10.313 10.8449 10.3746C10.9348 10.4361 10.997 10.5309 11.0178 10.6381C11.0386 10.7454 11.0164 10.8565 10.9559 10.9471C10.6172 11.4473 10.0868 11.7868 9.50816 11.9284Z" fill="#E57917"/>
    <path d="M26.4553 12.6131C24.7147 11.8658 24.2354 9.86346 22.1884 8.98453C21.4249 8.6567 16.0481 7.43228 12.9759 14.5874C10.7917 19.6742 11.4024 27.6368 15.2793 29.3014C16.8899 29.993 18.0008 29.203 19.0934 29.6721C20.1859 30.1412 20.3782 31.4907 21.9888 32.1823C25.8657 33.8469 32.0597 28.806 34.2438 23.7192C37.316 16.5641 32.7253 13.5088 31.9618 13.1809C29.9148 12.302 28.1959 13.3605 26.4553 12.6131Z" fill="#FF8686"/>
    <path d="M26.4265 12.6005C28.1464 9.49431 31.1744 7.29296 34.7046 6.64037Z" fill="#FF8686"/>
    <path d="M26.6729 11.8748C23.0766 10.3307 21.414 6.1612 22.9593 2.56207C26.5557 4.10622 28.2183 8.27571 26.6729 11.8748Z" fill="#FF8686"/>
    <path d="M26.4265 12.6005C28.1464 9.49431 31.1744 7.29296 34.7046 6.64037M26.4553 12.6131C24.7147 11.8658 24.2354 9.86346 22.1884 8.98453C21.4249 8.6567 16.0481 7.43228 12.9759 14.5874C10.7917 19.6742 11.4024 27.6368 15.2793 29.3014C16.8899 29.993 18.0008 29.203 19.0934 29.6721C20.1859 30.1412 20.3782 31.4907 21.9888 32.1823C25.8657 33.8469 32.0597 28.806 34.2438 23.7192C37.316 16.5641 32.7253 13.5088 31.9618 13.1809C29.9148 12.302 28.1959 13.3605 26.4553 12.6131ZM26.6729 11.8748C23.0766 10.3307 21.414 6.1612 22.9593 2.56207C26.5557 4.10622 28.2183 8.27571 26.6729 11.8748Z" stroke="#FF7C6A" stroke-width="1.92006" stroke-miterlimit="10" stroke-linecap="round" stroke-linejoin="round"/>
</svg>
