<svg width="40" height="50" viewBox="0 0 40 50" fill="none" xmlns="http://www.w3.org/2000/svg">
    <path d="M29.8163 24.747C29.8163 27.9723 29.4753 30.7606 28.7933 33.1119C28.1408 35.4425 27.2661 37.4296 26.1689 39.0735C25.0718 40.7173 23.8264 42.049 22.4326 43.0686C21.0686 44.0882 19.6749 44.879 18.2514 45.4408C16.8281 46.0026 15.4492 46.3771 14.1148 46.5644C12.7804 46.7724 11.6091 46.8765 10.6009 46.8765C5.61346 46.5863 1.86929 42.2251 2.17108 37.2384C2.24541 36.0103 2.31239 34.7804 2.37203 33.5489C2.57959 29.2416 2.68339 24.9031 2.68339 20.5334C2.68339 17.2249 2.62409 13.9476 2.50546 10.7016C2.41228 8.15142 2.2825 5.60127 2.1161 3.05111C2.04117 1.90272 2.91198 0.904821 4.06228 0.869728C4.7443 0.84892 5.41151 0.838516 6.06388 0.838516C10.9864 0.838516 14.9896 1.43155 18.0735 2.61761C21.1575 3.78286 23.5594 5.42671 25.2794 7.54914C27.0289 9.65076 28.215 12.1685 28.8378 15.1025C29.4902 18.0156 29.8163 21.2305 29.8163 24.747ZM20.7424 23.9043C20.7424 22.8848 20.7127 21.8027 20.6534 20.6583C20.5941 19.493 20.4607 18.3381 20.2531 17.1937C20.0752 16.0493 19.7935 14.936 19.408 13.854C19.0224 12.772 18.5183 11.7836 17.8956 10.8888C17.2729 9.97329 16.5019 9.19298 15.5827 8.54792C14.0596 7.44362 12.2055 8.83987 12.0691 10.7162C11.9915 11.7844 11.9172 12.8408 11.8463 13.8852C11.7277 16.0493 11.6239 18.1925 11.5349 20.3149C11.446 22.4374 11.3719 24.5494 11.3126 26.651C11.2829 28.7319 11.2681 30.823 11.2681 32.9247C11.2681 34.298 11.2681 35.6922 11.2681 37.1071C11.2681 37.2795 11.2685 37.4524 11.2694 37.6258C11.2802 39.6797 13.1691 41.3719 14.9155 40.2907C15.9237 39.6665 16.7688 38.8862 17.4508 37.9498C18.1625 36.9926 18.7259 35.921 19.141 34.7349C19.5859 33.5281 19.9269 32.3004 20.1642 31.0519C20.4014 29.7826 20.5496 28.5342 20.6089 27.3064C20.6979 26.0788 20.7424 24.9447 20.7424 23.9043Z" fill="url(#paint0_linear_154_30)"/>
    <path d="M29.0926 30.419C27.5014 29.7358 27.0633 27.9055 25.192 27.102C24.4941 26.8023 19.5789 25.683 16.7705 32.2238C14.7739 36.8738 15.3321 44.1528 18.8761 45.6744C20.3485 46.3066 21.364 45.5845 22.3627 46.0133C23.3615 46.4421 23.5373 47.6758 25.0096 48.308C28.5536 49.8297 34.2158 45.2216 36.2123 40.5715C39.0208 34.0308 34.8242 31.2378 34.1263 30.9381C32.255 30.1346 30.6837 31.1022 29.0926 30.419Z" fill="#FF8686"/>
    <path d="M29.0662 30.4075C30.6385 27.568 33.4065 25.5557 36.6336 24.9591L29.0662 30.4075Z" fill="#FF8686"/>
    <path d="M29.2915 29.7441C26.004 28.3326 24.4841 24.5211 25.8968 21.231C29.1843 22.6425 30.7042 26.454 29.2915 29.7441Z" fill="#FF8686"/>
    <path d="M29.0662 30.4075C30.6385 27.568 33.4065 25.5557 36.6336 24.9591M29.0926 30.419C27.5014 29.7358 27.0633 27.9055 25.192 27.102C24.4941 26.8023 19.5789 25.683 16.7705 32.2238C14.7739 36.8738 15.3321 44.1528 18.8761 45.6744C20.3485 46.3066 21.364 45.5845 22.3627 46.0133C23.3615 46.4421 23.5373 47.6758 25.0096 48.308C28.5536 49.8297 34.2158 45.2216 36.2123 40.5715C39.0208 34.0308 34.8242 31.2378 34.1263 30.9381C32.255 30.1346 30.6837 31.1022 29.0926 30.419ZM29.2915 29.7441C26.004 28.3326 24.4841 24.5211 25.8968 21.231C29.1843 22.6425 30.7042 26.454 29.2915 29.7441Z" stroke="#FF7C6A" stroke-width="2.1334" stroke-miterlimit="10" stroke-linecap="round" stroke-linejoin="round"/>
    <defs>
        <linearGradient id="paint0_linear_154_30" x1="15.5553" y1="8.88889" x2="15.0337" y2="47.4108" gradientUnits="userSpaceOnUse">
            <stop stop-color="#BDB4F1"/>
            <stop offset="0.490625" stop-color="#D8B9E3"/>
            <stop offset="0.969791" stop-color="#F1B1BB"/>
        </linearGradient>
    </defs>
</svg>
