<svg width="19" height="18" viewBox="0 0 19 18" fill="none" xmlns="http://www.w3.org/2000/svg">
    <path d="M9.3864 8.67069C10.5776 8.67069 11.6089 8.24344 12.4518 7.4005C13.2945 6.55773 13.7219 5.52653 13.7219 4.33522C13.7219 3.14427 13.2946 2.11296 12.4517 1.26988C11.6088 0.427219 10.5774 0 9.3864 0C8.19506 0 7.16382 0.427219 6.32105 1.27002C5.47829 2.11282 5.05089 3.14416 5.05089 4.33522C5.05089 5.52653 5.47825 6.55787 6.32109 7.40067C7.16414 8.24333 8.19552 8.67069 9.3864 8.67069ZM7.06704 2.01586C7.7137 1.36916 8.47234 1.05483 9.3864 1.05483C10.3003 1.05483 11.0591 1.36916 11.7059 2.01586C12.3526 2.66266 12.667 3.42141 12.667 4.33519C12.667 5.24925 12.3526 6.00789 11.7059 6.65469C11.0591 7.30153 10.3003 7.61586 9.3864 7.61586C8.47258 7.61586 7.71402 7.30139 7.06704 6.65469C6.4202 6.00803 6.10572 5.24929 6.10572 4.33522C6.10572 3.42141 6.4202 2.66266 7.06704 2.01586ZM16.9723 13.8411C16.948 13.4904 16.8988 13.1078 16.8264 12.7038C16.7534 12.2967 16.6593 11.9119 16.5467 11.5602C16.4303 11.1967 16.2722 10.8378 16.0765 10.4937C15.8736 10.1367 15.6353 9.82575 15.3677 9.56992C15.088 9.30227 14.7455 9.08708 14.3494 8.93007C13.9548 8.77398 13.5174 8.69488 13.0495 8.69488C12.8657 8.69488 12.6881 8.77025 12.3449 8.99371C12.1009 9.15256 11.8562 9.3103 11.6108 9.46691C11.375 9.61717 11.0556 9.75793 10.6611 9.88538C10.2761 10.0099 9.8853 10.0731 9.49939 10.0731C9.1138 10.0731 8.72293 10.0099 8.33772 9.88538C7.94362 9.75804 7.62405 9.61731 7.38864 9.46705C7.11548 9.2925 6.86833 9.13321 6.65395 8.99353C6.31104 8.77011 6.13332 8.6947 5.94959 8.6947C5.48156 8.6947 5.04432 8.77395 4.64976 8.93025C4.25397 9.08694 3.91134 9.30213 3.63132 9.57006C3.36382 9.82603 3.12542 10.1368 2.92271 10.4937C2.72731 10.8377 2.56911 11.1966 2.45264 11.5604C2.34014 11.9121 2.24609 12.2967 2.17304 12.7038C2.10051 13.1072 2.0515 13.49 2.02718 13.8415C2.00327 14.1853 1.99121 14.543 1.99121 14.9045C1.99121 15.8441 2.2899 16.6047 2.87891 17.1657C3.46064 17.7193 4.23024 18 5.16638 18H13.8335C14.7694 18 15.539 17.7193 16.1209 17.1657C16.71 16.6051 17.0087 15.8442 17.0087 14.9043C17.0086 14.5416 16.9964 14.1839 16.9723 13.8411ZM15.3936 16.4015C15.0092 16.7673 14.4989 16.9452 13.8333 16.9452H5.16642C4.5008 16.9452 3.99048 16.7673 3.60622 16.4017C3.22927 16.0428 3.04607 15.5529 3.04607 14.9045C3.04607 14.5672 3.05718 14.2342 3.07947 13.9145C3.10113 13.6008 3.1455 13.2562 3.21131 12.8901C3.27624 12.5285 3.35889 12.1892 3.45723 11.882C3.55159 11.5874 3.68026 11.2957 3.83983 11.0148C3.99213 10.7469 4.16735 10.5172 4.36071 10.3321C4.54159 10.1589 4.76957 10.0172 5.03817 9.91093C5.28658 9.81257 5.56579 9.75874 5.86887 9.75062C5.90579 9.77031 5.9716 9.80779 6.07816 9.87725C6.295 10.0186 6.54493 10.1798 6.82126 10.3563C7.13274 10.5549 7.53398 10.7342 8.01341 10.8889C8.50352 11.0474 9.00341 11.1279 9.49957 11.1279C9.99576 11.1279 10.4958 11.0474 10.9856 10.8891C11.4654 10.734 11.8666 10.5549 12.1785 10.356C12.4612 10.1753 12.7042 10.0187 12.921 9.87725C13.0276 9.80789 13.0933 9.77027 13.1303 9.75066C13.4335 9.75874 13.7127 9.81257 13.9612 9.9109C14.2297 10.0172 14.4577 10.1591 14.6386 10.3321C14.8319 10.5171 15.0071 10.7468 15.1594 11.0149C15.3192 11.2957 15.448 11.5876 15.5422 11.8819C15.6407 12.1895 15.7235 12.5287 15.7883 12.89C15.8539 13.2568 15.8984 13.6015 15.9201 13.9146C15.9425 14.233 15.9538 14.5662 15.9539 14.9045C15.9538 15.5531 15.7705 16.0428 15.3936 16.4015Z" fill="#B1B1B1"/>
</svg>
