<svg width="19" height="18" viewBox="0 0 19 18" fill="none" xmlns="http://www.w3.org/2000/svg">
<path d="M9.5 0C6.6875 0 4.4375 2.25 4.4375 5.0625V7.3125C3.48125 7.3125 2.75 8.04375 2.75 9V16.3125C2.75 17.2687 3.48125 18 4.4375 18H14.5625C15.5188 18 16.25 17.2687 16.25 16.3125V9C16.25 8.04375 15.5188 7.3125 14.5625 7.3125V5.0625C14.5625 2.25 12.3125 0 9.5 0ZM15.125 9V16.3125C15.125 16.65 14.9 16.875 14.5625 16.875H4.4375C4.1 16.875 3.875 16.65 3.875 16.3125V9C3.875 8.6625 4.1 8.4375 4.4375 8.4375H14.5625C14.9 8.4375 15.125 8.6625 15.125 9ZM5.5625 7.3125V5.0625C5.5625 2.86875 7.30625 1.125 9.5 1.125C11.6938 1.125 13.4375 2.86875 13.4375 5.0625V7.3125H5.5625Z" fill="#B1B1B1"/>
<path d="M9.5 10.125C8.54375 10.125 7.8125 10.8563 7.8125 11.8125C7.8125 12.5438 8.2625 13.1625 8.9375 13.3875V14.625C8.9375 14.9625 9.1625 15.1875 9.5 15.1875C9.8375 15.1875 10.0625 14.9625 10.0625 14.625V13.3875C10.7375 13.1625 11.1875 12.5438 11.1875 11.8125C11.1875 10.8563 10.4563 10.125 9.5 10.125ZM9.5 12.375C9.1625 12.375 8.9375 12.15 8.9375 11.8125C8.9375 11.475 9.1625 11.25 9.5 11.25C9.8375 11.25 10.0625 11.475 10.0625 11.8125C10.0625 12.15 9.8375 12.375 9.5 12.375Z" fill="#B1B1B1"/>
</svg>
