<svg width="19" height="18" viewBox="0 0 19 18" fill="none" xmlns="http://www.w3.org/2000/svg">
    <path d="M11.7491 7.31262H11.1867V6.18771C11.1867 4.94693 10.1776 3.93788 8.93685 3.93788C7.69607 3.93788 6.68702 4.94693 6.68702 6.18771V7.31262H6.12457C5.81409 7.31262 5.56211 7.5646 5.56211 7.87508V12.3747C5.56211 12.6852 5.81409 12.9372 6.12457 12.9372H11.7491C12.0596 12.9372 12.3116 12.6852 12.3116 12.3747V7.87508C12.3116 7.5646 12.0596 7.31262 11.7491 7.31262ZM7.81194 6.18771C7.81194 5.56788 8.3159 5.06279 8.93685 5.06279C9.5578 5.06279 10.0618 5.56788 10.0618 6.18771V7.31262H7.81194V6.18771ZM11.1867 11.8123H6.68702V8.43753H11.1867V11.8123Z" fill="#B1B1B1"/>
    <path d="M18.1465 5.66575C17.8574 5.54988 17.5301 5.6905 17.4164 5.9796L17.0801 6.82103C16.1138 3.22243 12.8347 0.563141 8.93685 0.563141C4.28421 0.563141 0.5 4.34735 0.5 8.99999C0.5 13.6526 4.28421 17.4368 8.93685 17.4368C11.1901 17.4368 13.3083 16.5594 14.9034 14.9654C15.1227 14.746 15.1227 14.3894 14.9034 14.1701C14.684 13.9507 14.3274 13.9507 14.1081 14.1701C12.7256 15.5515 10.8886 16.3119 8.93685 16.3119C4.90516 16.3119 1.62491 13.0317 1.62491 8.99999C1.62491 4.9683 4.90516 1.68805 8.93685 1.68805C12.4477 1.68805 15.3871 4.17636 16.0879 7.48136L14.9596 6.35194C14.7403 6.13259 14.3837 6.13259 14.1643 6.35194C13.945 6.5713 13.945 6.9279 14.1643 7.14726L16.4141 9.39708C16.4265 9.40946 16.4434 9.41396 16.4569 9.42521C16.4996 9.4612 16.5435 9.49608 16.5953 9.51745C16.6628 9.54782 16.737 9.56245 16.8112 9.56245C16.8484 9.56245 16.8866 9.55907 16.9249 9.5512C16.9406 9.54782 16.9519 9.53545 16.9665 9.53095C17.0238 9.51407 17.0756 9.4882 17.124 9.45558C17.1453 9.44096 17.1667 9.43083 17.1858 9.41396C17.2477 9.35771 17.2995 9.29134 17.3321 9.2126C17.3321 9.21147 17.3332 9.21035 17.3343 9.20922L18.4592 6.39694C18.5751 6.10896 18.4356 5.78161 18.1465 5.66575Z" fill="#B1B1B1"/>
</svg>
